<?xml version="1.0" standalone="no"?>
<!DOCTYPE svg PUBLIC "-//W3C//DTD SVG 20010904//EN"
 "http://www.w3.org/TR/2001/REC-SVG-20010904/DTD/svg10.dtd">
<svg version="1.0" xmlns="http://www.w3.org/2000/svg"
 width="150.000000pt" height="151.000000pt" viewBox="0 0 150.000000 151.000000"
 preserveAspectRatio="xMidYMid meet">

<g transform="translate(0.000000,151.000000) scale(0.100000,-0.100000)"
fill="#000000" stroke="none">
<path d="M645 1489 c-159 -24 -289 -92 -410 -214 -152 -152 -219 -312 -219
-525 0 -213 66 -373 219 -526 76 -77 105 -98 185 -137 128 -63 189 -77 335
-77 91 0 139 5 195 21 256 71 465 286 525 542 19 81 19 273 0 354 -60 255
-269 472 -524 542 -88 24 -223 33 -306 20z m53 -351 c-3 -7 -41 -42 -86 -79
-45 -36 -89 -74 -97 -85 -26 -35 -17 -70 41 -160 130 -199 148 -320 61 -413
-67 -71 -189 -101 -270 -67 -43 17 -101 85 -115 135 -24 80 -7 171 33 171 9 0
14 -22 16 -83 4 -73 8 -88 32 -120 36 -48 81 -71 138 -70 119 2 195 111 156
226 -8 25 -43 86 -77 137 -71 106 -110 184 -110 222 0 52 189 198 258 198 14
0 22 -5 20 -12z m102 -68 c13 -8 15 -52 15 -295 l0 -286 30 6 c17 3 91 10 165
15 146 10 166 14 250 54 30 14 56 23 59 20 8 -8 -34 -58 -78 -91 -60 -46 -107
-56 -257 -55 l-130 2 -22 -45 c-21 -44 -64 -76 -80 -61 -9 9 -6 721 3 736 8
12 25 13 45 0z"/>
</g>
</svg>
